<mxfile host="app.diagrams.net" modified="2023-12-21T16:00:23.263Z" agent="Mozilla/5.0 (Macintosh; Intel Mac OS X 10_15_7) AppleWebKit/537.36 (KHTML, like Gecko) Chrome/120.0.0.0 Safari/537.36" version="22.1.11" etag="Sf1b9hUdwUxHBANMqMWW" type="github">
  <diagram name="페이지-1" id="-f1ZS_paMCgzkMbpnR7s">
    <mxGraphModel>
      <root>
        <mxCell id="0" />
        <mxCell id="1" parent="0" />
      </root>
    </mxGraphModel>
  </diagram>
</mxfile>
